<?xml version="1.0" standalone="no"?>
<!DOCTYPE svg PUBLIC "-//W3C//DTD SVG 20010904//EN"
 "http://www.w3.org/TR/2001/REC-SVG-20010904/DTD/svg10.dtd">
<svg version="1.0" xmlns="http://www.w3.org/2000/svg"
 width="400.000000pt" height="400.000000pt" viewBox="0 0 400.000000 400.000000"
 preserveAspectRatio="xMidYMid meet">

<g transform="translate(0.000000,400.000000) scale(0.100000,-0.100000)"
fill="#000000" stroke="none">
<path d="M0 2000 l0 -2000 2000 0 2000 0 0 2000 0 2000 -2000 0 -2000 0 0
-2000z m2918 723 l-3 -688 -190 -2 -190 -2 -235 284 -235 285 -5 -283 -5 -282
-177 -3 -178 -2 0 530 c0 291 2 530 5 530 3 0 79 20 171 45 91 25 169 45 174
45 5 0 121 -133 257 -296 l248 -297 3 366 2 367 28 6 c15 4 88 24 162 45 74
20 143 37 153 38 16 1 17 -36 15 -686z m-1520 -205 l-3 -483 -167 -3 -168 -2
0 443 0 444 123 32 c67 18 133 36 147 41 14 5 35 9 48 9 l22 1 -2 -482z m1304
-644 c75 -24 190 -92 211 -125 7 -12 -6 -40 -58 -120 -37 -57 -68 -105 -70
-107 -1 -1 -26 14 -56 34 -90 61 -135 77 -220 78 -94 1 -119 -15 -119 -76 0
-50 28 -68 168 -103 212 -53 318 -116 360 -213 58 -134 27 -304 -72 -403 -164
-166 -506 -149 -739 36 l-58 46 24 32 c13 18 48 65 78 105 29 39 56 72 59 72
3 0 28 -17 57 -38 60 -45 125 -78 185 -92 135 -31 237 17 207 97 -10 29 -48
47 -145 72 -272 70 -362 133 -400 280 -45 179 50 366 218 427 109 40 241 39
370 -2z m-1002 5 c138 -22 252 -107 308 -227 36 -79 43 -212 14 -294 -28 -78
-72 -139 -134 -184 -29 -21 -55 -39 -57 -40 -2 -2 49 -86 113 -187 64 -101
116 -189 116 -196 0 -8 -51 -11 -174 -11 l-175 0 -24 33 c-13 17 -64 96 -112
175 l-88 142 -49 0 -48 0 0 -175 0 -175 -162 2 -163 3 -3 560 c-1 308 0 566 3
573 6 15 538 17 635 1z"/>
<path d="M1390 1490 l0 -110 136 0 136 0 29 29 c33 34 39 92 15 140 -22 42
-54 51 -191 51 l-125 0 0 -110z"/>
</g>
</svg>
